<svg width="16" height="16" viewBox="0 0 16 16" fill="none" xmlns="http://www.w3.org/2000/svg">
<path d="M8.07062 3.32176C7.24515 3.32281 6.45379 3.65119 5.87009 4.23489C5.2864 4.81858 4.95802 5.60994 4.95697 6.43541H6.53991C6.53991 5.59091 7.22691 4.90471 8.07062 4.90471C8.91432 4.90471 9.60132 5.59091 9.60132 6.43541C9.60132 6.90871 9.22062 7.25221 8.63889 7.72234C8.44885 7.87122 8.26632 8.02944 8.09199 8.19643C7.3021 8.98553 7.27915 9.8237 7.27915 9.91709V10.445H8.86209L8.86129 9.944C8.86209 9.93134 8.88741 9.63849 9.21033 9.31636C9.32905 9.19764 9.47864 9.07892 9.63377 8.95387C10.2503 8.45445 11.1835 7.70018 11.1835 6.43541C11.1828 5.60995 10.8547 4.81847 10.2711 4.2347C9.68748 3.65094 8.89608 3.3226 8.07062 3.32176ZM7.27915 11.2365H8.86209V12.8194H7.27915V11.2365Z" fill="white"/>
<path d="M8.07059 0.155882C3.70642 0.155882 0.155884 3.70642 0.155884 8.07059C0.155884 12.4348 3.70642 15.9853 8.07059 15.9853C12.4348 15.9853 15.9853 12.4348 15.9853 8.07059C15.9853 3.70642 12.4348 0.155882 8.07059 0.155882ZM8.07059 14.4024C4.57941 14.4024 1.73882 11.5618 1.73882 8.07059C1.73882 4.57941 4.57941 1.73882 8.07059 1.73882C11.5618 1.73882 14.4024 4.57941 14.4024 8.07059C14.4024 11.5618 11.5618 14.4024 8.07059 14.4024Z" fill="white"/>
</svg>
