<svg width="17" height="17" viewBox="0 0 17 17" fill="none" xmlns="http://www.w3.org/2000/svg">
<path d="M16.5092 6.55112C16.5869 6.36342 16.6072 6.15688 16.5676 5.95763C16.5279 5.75837 16.43 5.57536 16.2863 5.43175L11.1516 0.296997L9.69945 1.7491L13.0812 5.13085H0.156003V7.18475H15.5603C15.7634 7.1848 15.9619 7.12463 16.1308 7.01185C16.2997 6.89907 16.4314 6.73873 16.5092 6.55112V6.55112ZM0.234051 9.87228C0.156306 10.06 0.135982 10.2665 0.17565 10.4658C0.215318 10.665 0.313196 10.848 0.456899 10.9917L5.59165 16.1264L7.04376 14.6743L3.66201 11.2926H16.5872V9.23865H1.18295C0.979827 9.23847 0.781217 9.29858 0.61229 9.41138C0.443363 9.52418 0.311723 9.68459 0.234051 9.87228V9.87228Z" fill="white"/>
</svg>
