<svg width="16" height="16" viewBox="0 0 16 16" fill="none" xmlns="http://www.w3.org/2000/svg">
<path d="M1.0353 8.95H6.31177C6.79544 8.95 7.19118 8.55427 7.19118 8.07059V1.0353C7.19118 0.551619 6.79544 0.155884 6.31177 0.155884H1.0353C0.551619 0.155884 0.155884 0.551619 0.155884 1.0353V8.07059C0.155884 8.55427 0.551619 8.95 1.0353 8.95ZM1.0353 15.9853H6.31177C6.79544 15.9853 7.19118 15.5896 7.19118 15.1059V11.5882C7.19118 11.1046 6.79544 10.7088 6.31177 10.7088H1.0353C0.551619 10.7088 0.155884 11.1046 0.155884 11.5882V15.1059C0.155884 15.5896 0.551619 15.9853 1.0353 15.9853ZM9.82941 15.9853H15.1059C15.5896 15.9853 15.9853 15.5896 15.9853 15.1059V8.07059C15.9853 7.58691 15.5896 7.19118 15.1059 7.19118H9.82941C9.34574 7.19118 8.95 7.58691 8.95 8.07059V15.1059C8.95 15.5896 9.34574 15.9853 9.82941 15.9853ZM8.95 1.0353V4.55294C8.95 5.03662 9.34574 5.43235 9.82941 5.43235H15.1059C15.5896 5.43235 15.9853 5.03662 15.9853 4.55294V1.0353C15.9853 0.551619 15.5896 0.155884 15.1059 0.155884H9.82941C9.34574 0.155884 8.95 0.551619 8.95 1.0353Z" fill="white"/>
</svg>
