<svg width="201" height="32" viewBox="0 0 201 32" fill="none" xmlns="http://www.w3.org/2000/svg">
<g clip-path="url(#clip0_10_434)">
<path d="M51.2088 0.922729H71.5078L53.9768 30.4485H33.6779L51.2088 0.922729Z" fill="#4690EF"/>
<path d="M32.7552 0.922729H47.5181L29.9871 30.4485H15.2242L32.7552 0.922729Z" fill="#87BBFF"/>
<path d="M17.9923 0.922729H29.0645L11.5335 30.4485H0.461365L17.9923 0.922729Z" fill="#002559"/>
</g>
<path d="M118.029 8.21351V24H115.164V11.5546L111.368 12.8089V10.495L117.705 8.21351H118.029ZM128.398 24H125.003L125.025 21.6645H128.398C129.314 21.6645 130.082 21.4626 130.701 21.059C131.321 20.6481 131.79 20.0606 132.107 19.2965C132.424 18.5252 132.583 17.6025 132.583 16.5285V15.7175C132.583 14.8885 132.493 14.1569 132.313 13.5225C132.132 12.8882 131.866 12.3548 131.512 11.9223C131.166 11.4898 130.737 11.1618 130.226 10.9383C129.714 10.7148 129.126 10.6031 128.463 10.6031H124.938V8.25676H128.463C129.516 8.25676 130.474 8.43337 131.339 8.78659C132.212 9.1398 132.965 9.64799 133.599 10.3112C134.241 10.9671 134.731 11.7529 135.07 12.6683C135.416 13.5838 135.589 14.6074 135.589 15.7391V16.5285C135.589 17.653 135.416 18.6766 135.07 19.5992C134.731 20.5147 134.241 21.3004 133.599 21.9564C132.965 22.6124 132.208 23.117 131.329 23.4702C130.449 23.8234 129.472 24 128.398 24ZM126.668 8.25676V24H123.695V8.25676H126.668ZM143.158 24.2163C142.271 24.2163 141.474 24.0721 140.768 23.7837C140.062 23.4954 139.46 23.0953 138.962 22.5835C138.472 22.0645 138.094 21.4626 137.827 20.7778C137.567 20.0858 137.438 19.3433 137.438 18.5504V18.1179C137.438 17.2169 137.567 16.3987 137.827 15.6634C138.087 14.921 138.454 14.283 138.93 13.7496C139.406 13.2162 139.975 12.8053 140.638 12.517C141.301 12.2286 142.033 12.0844 142.833 12.0844C143.662 12.0844 144.394 12.225 145.028 12.5061C145.663 12.7801 146.192 13.1693 146.618 13.6739C147.043 14.1785 147.364 14.784 147.58 15.4904C147.796 16.1897 147.904 16.9646 147.904 17.8152V19.0154H138.735V17.0475H145.093V16.8312C145.079 16.3771 144.992 15.9626 144.834 15.5877C144.675 15.2057 144.43 14.9029 144.098 14.6795C143.767 14.4488 143.338 14.3335 142.812 14.3335C142.386 14.3335 142.015 14.4272 141.698 14.6146C141.388 14.7948 141.128 15.0543 140.919 15.3931C140.718 15.7247 140.566 16.1212 140.465 16.5825C140.364 17.0439 140.314 17.5557 140.314 18.1179V18.5504C140.314 19.0406 140.379 19.4947 140.509 19.9128C140.646 20.3309 140.844 20.6949 141.103 21.0049C141.37 21.3076 141.687 21.5455 142.055 21.7185C142.43 21.8843 142.855 21.9672 143.331 21.9672C143.929 21.9672 144.47 21.8519 144.953 21.6212C145.443 21.3833 145.868 21.0337 146.228 20.5724L147.667 22.0645C147.421 22.425 147.09 22.771 146.672 23.1025C146.261 23.4341 145.763 23.7045 145.18 23.9135C144.596 24.1153 143.922 24.2163 143.158 24.2163Z" fill="#2F80ED"/>
<path d="M153.008 8.25676V24H150.034V8.25676H153.008ZM159.355 15.0579V17.4043H152.229V15.0579H159.355ZM160.188 8.25676V10.6031H152.229V8.25676H160.188ZM165.021 12.3007V24H162.155V12.3007H165.021ZM161.961 9.24072C161.961 8.81542 162.105 8.46221 162.393 8.18108C162.689 7.89995 163.085 7.75938 163.583 7.75938C164.08 7.75938 164.473 7.89995 164.761 8.18108C165.057 8.46221 165.205 8.81542 165.205 9.24072C165.205 9.65881 165.057 10.0084 164.761 10.2895C164.473 10.5707 164.08 10.7112 163.583 10.7112C163.085 10.7112 162.689 10.5707 162.393 10.2895C162.105 10.0084 161.961 9.65881 161.961 9.24072Z" fill="white"/>
<defs>
<clipPath id="clip0_10_434">
<rect width="71.9691" height="29.5258" fill="white" transform="translate(0 0.922668)"/>
</clipPath>
</defs>
</svg>
